<?xml version="1.0" encoding="utf-8" standalone="no"?>
<!DOCTYPE svg PUBLIC "-//W3C//DTD SVG 1.1//EN"
  "http://www.w3.org/Graphics/SVG/1.1/DTD/svg11.dtd">
<svg xmlns:xlink="http://www.w3.org/1999/xlink" width="211.210435pt" height="164.858238pt" viewBox="0 0 211.210435 164.858238" xmlns="http://www.w3.org/2000/svg" version="1.1">
 <metadata>
  <rdf:RDF xmlns:dc="http://purl.org/dc/elements/1.1/" xmlns:cc="http://creativecommons.org/ns#" xmlns:rdf="http://www.w3.org/1999/02/22-rdf-syntax-ns#">
   <cc:Work>
    <dc:type rdf:resource="http://purl.org/dc/dcmitype/StillImage"/>
    <dc:date>2023-09-04T17:02:24.049520</dc:date>
    <dc:format>image/svg+xml</dc:format>
    <dc:creator>
     <cc:Agent>
      <dc:title>Matplotlib v3.5.0, https://matplotlib.org/</dc:title>
     </cc:Agent>
    </dc:creator>
   </cc:Work>
  </rdf:RDF>
 </metadata>
 <defs>
  <style type="text/css">*{stroke-linejoin: round; stroke-linecap: butt}</style>
 </defs>
 <g id="figure_1">
  <g id="patch_1">
   <path d="M 0 164.858238 
L 211.210435 164.858238 
L 211.210435 0 
L 0 0 
L 0 164.858238 
z
" style="fill: none"/>
  </g>
  <g id="axes_1">
   <g id="patch_2">
    <path d="M 23.470435 139.5 
L 207.610435 139.5 
L 207.610435 3.6 
L 23.470435 3.6 
z
" style="fill: #ffffff"/>
   </g>
   <g id="matplotlib.axis_1">
    <g id="xtick_1">
     <g id="line2d_1">
      <defs>
       <path id="m06c83a4442" d="M 0 0 
L 0 -3 
" style="stroke: #000000; stroke-width: 0.5"/>
      </defs>
      <g>
       <use xlink:href="#m06c83a4442" x="50.440435" y="139.5" style="stroke: #000000; stroke-width: 0.5"/>
      </g>
     </g>
     <g id="line2d_2">
      <defs>
       <path id="mc5d5464f22" d="M 0 0 
L 0 3 
" style="stroke: #000000; stroke-width: 0.5"/>
      </defs>
      <g>
       <use xlink:href="#mc5d5464f22" x="50.440435" y="3.6" style="stroke: #000000; stroke-width: 0.5"/>
      </g>
     </g>
     <g id="text_1">
      <!-- $\mathdefault{2}$ -->
      <g transform="translate(48.447907 148.403656)scale(0.08 -0.08)">
       <defs>
        <path id="NimbusRomNo9L-Regu-32" d="M 3040 875 
L 2957 907 
C 2720 544 2637 486 2349 486 
L 819 486 
L 1894 1609 
C 2464 2202 2714 2687 2714 3185 
C 2714 3823 2195 4313 1530 4313 
C 1178 4313 845 4173 608 3918 
C 403 3700 307 3496 198 3043 
L 333 3011 
C 589 3636 819 3840 1261 3840 
C 1798 3840 2163 3476 2163 2940 
C 2163 2443 1869 1850 1331 1282 
L 192 77 
L 192 0 
L 2688 0 
L 3040 875 
z
" transform="scale(0.015625)"/>
       </defs>
       <use xlink:href="#NimbusRomNo9L-Regu-32" transform="scale(0.996264)"/>
      </g>
     </g>
    </g>
    <g id="xtick_2">
     <g id="line2d_3">
      <g>
       <use xlink:href="#m06c83a4442" x="87.640435" y="139.5" style="stroke: #000000; stroke-width: 0.5"/>
      </g>
     </g>
     <g id="line2d_4">
      <g>
       <use xlink:href="#mc5d5464f22" x="87.640435" y="3.6" style="stroke: #000000; stroke-width: 0.5"/>
      </g>
     </g>
     <g id="text_2">
      <!-- $\mathdefault{4}$ -->
      <g transform="translate(85.647907 148.403656)scale(0.08 -0.08)">
       <defs>
        <path id="NimbusRomNo9L-Regu-34" d="M 3021 1497 
L 2368 1497 
L 2368 4352 
L 2086 4352 
L 77 1497 
L 77 1088 
L 1875 1088 
L 1875 32 
L 2368 32 
L 2368 1088 
L 3021 1088 
L 3021 1497 
z
M 1869 1497 
L 333 1497 
L 1869 3698 
L 1869 1497 
z
" transform="scale(0.015625)"/>
       </defs>
       <use xlink:href="#NimbusRomNo9L-Regu-34" transform="scale(0.996264)"/>
      </g>
     </g>
    </g>
    <g id="xtick_3">
     <g id="line2d_5">
      <g>
       <use xlink:href="#m06c83a4442" x="124.840435" y="139.5" style="stroke: #000000; stroke-width: 0.5"/>
      </g>
     </g>
     <g id="line2d_6">
      <g>
       <use xlink:href="#mc5d5464f22" x="124.840435" y="3.6" style="stroke: #000000; stroke-width: 0.5"/>
      </g>
     </g>
     <g id="text_3">
      <!-- $\mathdefault{6}$ -->
      <g transform="translate(122.847907 148.403656)scale(0.08 -0.08)">
       <defs>
        <path id="NimbusRomNo9L-Regu-36" d="M 2854 4391 
C 2125 4327 1754 4205 1286 3879 
C 595 3386 218 2656 218 1802 
C 218 1248 390 688 666 370 
C 909 89 1254 -64 1651 -64 
C 2445 -64 2995 541 2995 1421 
C 2995 2236 2528 2752 1792 2752 
C 1510 2752 1376 2707 973 2464 
C 1146 3431 1862 4122 2867 4288 
L 2854 4391 
z
M 1549 2458 
C 2099 2458 2419 2000 2419 1204 
C 2419 504 2170 116 1722 116 
C 1158 116 813 714 813 1700 
C 813 2025 864 2203 992 2299 
C 1126 2400 1325 2458 1549 2458 
z
" transform="scale(0.015625)"/>
       </defs>
       <use xlink:href="#NimbusRomNo9L-Regu-36" transform="scale(0.996264)"/>
      </g>
     </g>
    </g>
    <g id="xtick_4">
     <g id="line2d_7">
      <g>
       <use xlink:href="#m06c83a4442" x="162.040435" y="139.5" style="stroke: #000000; stroke-width: 0.5"/>
      </g>
     </g>
     <g id="line2d_8">
      <g>
       <use xlink:href="#mc5d5464f22" x="162.040435" y="3.6" style="stroke: #000000; stroke-width: 0.5"/>
      </g>
     </g>
     <g id="text_4">
      <!-- $\mathdefault{8}$ -->
      <g transform="translate(160.047907 148.403656)scale(0.08 -0.08)">
       <defs>
        <path id="NimbusRomNo9L-Regu-38" d="M 1856 2400 
C 2490 2740 2714 3008 2714 3444 
C 2714 3968 2253 4352 1613 4352 
C 915 4352 397 3924 397 3341 
C 397 2925 518 2740 1190 2151 
C 499 1626 358 1428 358 992 
C 358 372 864 -64 1587 -64 
C 2355 -64 2848 359 2848 1018 
C 2848 1511 2630 1824 1856 2400 
z
M 1741 1741 
C 2208 1408 2362 1178 2362 820 
C 2362 404 2074 116 1658 116 
C 1171 116 845 487 845 1044 
C 845 1453 986 1722 1357 2023 
L 1741 1741 
z
M 1670 2516 
C 1101 2887 870 3181 870 3540 
C 870 3911 1158 4173 1562 4173 
C 1997 4173 2272 3892 2272 3450 
C 2272 3085 2093 2797 1728 2554 
C 1696 2535 1696 2535 1670 2516 
z
" transform="scale(0.015625)"/>
       </defs>
       <use xlink:href="#NimbusRomNo9L-Regu-38" transform="scale(0.996264)"/>
      </g>
     </g>
    </g>
    <g id="xtick_5">
     <g id="line2d_9">
      <g>
       <use xlink:href="#m06c83a4442" x="199.240435" y="139.5" style="stroke: #000000; stroke-width: 0.5"/>
      </g>
     </g>
     <g id="line2d_10">
      <g>
       <use xlink:href="#mc5d5464f22" x="199.240435" y="3.6" style="stroke: #000000; stroke-width: 0.5"/>
      </g>
     </g>
     <g id="text_5">
      <!-- $\mathdefault{10}$ -->
      <g transform="translate(195.255379 148.403656)scale(0.08 -0.08)">
       <defs>
        <path id="NimbusRomNo9L-Regu-31" d="M 1862 4339 
L 710 3757 
L 710 3667 
C 787 3699 858 3725 883 3738 
C 998 3783 1107 3808 1171 3808 
C 1306 3808 1363 3711 1363 3505 
L 1363 592 
C 1363 379 1312 232 1210 173 
C 1114 116 1024 96 755 96 
L 755 0 
L 2522 0 
L 2522 96 
C 2016 96 1914 160 1914 470 
L 1914 4327 
L 1862 4339 
z
" transform="scale(0.015625)"/>
        <path id="NimbusRomNo9L-Regu-30" d="M 1626 4352 
C 1274 4352 1005 4244 768 4020 
C 397 3661 154 2925 154 2176 
C 154 1479 365 730 666 372 
C 902 90 1229 -64 1600 -64 
C 1926 -64 2202 45 2432 269 
C 2803 621 3046 1364 3046 2138 
C 3046 3450 2464 4352 1626 4352 
z
M 1606 4186 
C 2144 4186 2432 3463 2432 2125 
C 2432 788 2150 103 1600 103 
C 1050 103 768 788 768 2119 
C 768 3476 1056 4186 1606 4186 
z
" transform="scale(0.015625)"/>
       </defs>
       <use xlink:href="#NimbusRomNo9L-Regu-31" transform="scale(0.996264)"/>
       <use xlink:href="#NimbusRomNo9L-Regu-30" transform="translate(49.8132 0)scale(0.996264)"/>
      </g>
     </g>
    </g>
    <g id="xtick_6">
     <g id="line2d_11">
      <defs>
       <path id="m01307a30b7" d="M 0 0 
L 0 -1.5 
" style="stroke: #000000; stroke-width: 0.5"/>
      </defs>
      <g>
       <use xlink:href="#m01307a30b7" x="31.840435" y="139.5" style="stroke: #000000; stroke-width: 0.5"/>
      </g>
     </g>
     <g id="line2d_12">
      <defs>
       <path id="mb25ee11e24" d="M 0 0 
L 0 1.5 
" style="stroke: #000000; stroke-width: 0.5"/>
      </defs>
      <g>
       <use xlink:href="#mb25ee11e24" x="31.840435" y="3.6" style="stroke: #000000; stroke-width: 0.5"/>
      </g>
     </g>
    </g>
    <g id="xtick_7">
     <g id="line2d_13">
      <g>
       <use xlink:href="#m01307a30b7" x="41.140435" y="139.5" style="stroke: #000000; stroke-width: 0.5"/>
      </g>
     </g>
     <g id="line2d_14">
      <g>
       <use xlink:href="#mb25ee11e24" x="41.140435" y="3.6" style="stroke: #000000; stroke-width: 0.5"/>
      </g>
     </g>
    </g>
    <g id="xtick_8">
     <g id="line2d_15">
      <g>
       <use xlink:href="#m01307a30b7" x="59.740435" y="139.5" style="stroke: #000000; stroke-width: 0.5"/>
      </g>
     </g>
     <g id="line2d_16">
      <g>
       <use xlink:href="#mb25ee11e24" x="59.740435" y="3.6" style="stroke: #000000; stroke-width: 0.5"/>
      </g>
     </g>
    </g>
    <g id="xtick_9">
     <g id="line2d_17">
      <g>
       <use xlink:href="#m01307a30b7" x="69.040435" y="139.5" style="stroke: #000000; stroke-width: 0.5"/>
      </g>
     </g>
     <g id="line2d_18">
      <g>
       <use xlink:href="#mb25ee11e24" x="69.040435" y="3.6" style="stroke: #000000; stroke-width: 0.5"/>
      </g>
     </g>
    </g>
    <g id="xtick_10">
     <g id="line2d_19">
      <g>
       <use xlink:href="#m01307a30b7" x="78.340435" y="139.5" style="stroke: #000000; stroke-width: 0.5"/>
      </g>
     </g>
     <g id="line2d_20">
      <g>
       <use xlink:href="#mb25ee11e24" x="78.340435" y="3.6" style="stroke: #000000; stroke-width: 0.5"/>
      </g>
     </g>
    </g>
    <g id="xtick_11">
     <g id="line2d_21">
      <g>
       <use xlink:href="#m01307a30b7" x="96.940435" y="139.5" style="stroke: #000000; stroke-width: 0.5"/>
      </g>
     </g>
     <g id="line2d_22">
      <g>
       <use xlink:href="#mb25ee11e24" x="96.940435" y="3.6" style="stroke: #000000; stroke-width: 0.5"/>
      </g>
     </g>
    </g>
    <g id="xtick_12">
     <g id="line2d_23">
      <g>
       <use xlink:href="#m01307a30b7" x="106.240435" y="139.5" style="stroke: #000000; stroke-width: 0.5"/>
      </g>
     </g>
     <g id="line2d_24">
      <g>
       <use xlink:href="#mb25ee11e24" x="106.240435" y="3.6" style="stroke: #000000; stroke-width: 0.5"/>
      </g>
     </g>
    </g>
    <g id="xtick_13">
     <g id="line2d_25">
      <g>
       <use xlink:href="#m01307a30b7" x="115.540435" y="139.5" style="stroke: #000000; stroke-width: 0.5"/>
      </g>
     </g>
     <g id="line2d_26">
      <g>
       <use xlink:href="#mb25ee11e24" x="115.540435" y="3.6" style="stroke: #000000; stroke-width: 0.5"/>
      </g>
     </g>
    </g>
    <g id="xtick_14">
     <g id="line2d_27">
      <g>
       <use xlink:href="#m01307a30b7" x="134.140435" y="139.5" style="stroke: #000000; stroke-width: 0.5"/>
      </g>
     </g>
     <g id="line2d_28">
      <g>
       <use xlink:href="#mb25ee11e24" x="134.140435" y="3.6" style="stroke: #000000; stroke-width: 0.5"/>
      </g>
     </g>
    </g>
    <g id="xtick_15">
     <g id="line2d_29">
      <g>
       <use xlink:href="#m01307a30b7" x="143.440435" y="139.5" style="stroke: #000000; stroke-width: 0.5"/>
      </g>
     </g>
     <g id="line2d_30">
      <g>
       <use xlink:href="#mb25ee11e24" x="143.440435" y="3.6" style="stroke: #000000; stroke-width: 0.5"/>
      </g>
     </g>
    </g>
    <g id="xtick_16">
     <g id="line2d_31">
      <g>
       <use xlink:href="#m01307a30b7" x="152.740435" y="139.5" style="stroke: #000000; stroke-width: 0.5"/>
      </g>
     </g>
     <g id="line2d_32">
      <g>
       <use xlink:href="#mb25ee11e24" x="152.740435" y="3.6" style="stroke: #000000; stroke-width: 0.5"/>
      </g>
     </g>
    </g>
    <g id="xtick_17">
     <g id="line2d_33">
      <g>
       <use xlink:href="#m01307a30b7" x="171.340435" y="139.5" style="stroke: #000000; stroke-width: 0.5"/>
      </g>
     </g>
     <g id="line2d_34">
      <g>
       <use xlink:href="#mb25ee11e24" x="171.340435" y="3.6" style="stroke: #000000; stroke-width: 0.5"/>
      </g>
     </g>
    </g>
    <g id="xtick_18">
     <g id="line2d_35">
      <g>
       <use xlink:href="#m01307a30b7" x="180.640435" y="139.5" style="stroke: #000000; stroke-width: 0.5"/>
      </g>
     </g>
     <g id="line2d_36">
      <g>
       <use xlink:href="#mb25ee11e24" x="180.640435" y="3.6" style="stroke: #000000; stroke-width: 0.5"/>
      </g>
     </g>
    </g>
    <g id="xtick_19">
     <g id="line2d_37">
      <g>
       <use xlink:href="#m01307a30b7" x="189.940435" y="139.5" style="stroke: #000000; stroke-width: 0.5"/>
      </g>
     </g>
     <g id="line2d_38">
      <g>
       <use xlink:href="#mb25ee11e24" x="189.940435" y="3.6" style="stroke: #000000; stroke-width: 0.5"/>
      </g>
     </g>
    </g>
    <g id="text_6">
     <!-- $x$ -->
     <g transform="translate(113.771092 159.532775)scale(0.08 -0.08)">
      <defs>
       <path id="NimbusRomNo9L-ReguItal-78" d="M 2573 714 
C 2522 656 2490 618 2432 541 
C 2285 351 2208 287 2138 287 
C 2042 287 1984 370 1939 548 
C 1926 599 1920 637 1914 656 
C 1754 1299 1683 1592 1683 1688 
C 1965 2179 2195 2459 2310 2459 
C 2349 2459 2400 2440 2464 2408 
C 2541 2363 2586 2350 2637 2350 
C 2771 2350 2861 2446 2861 2580 
C 2861 2714 2752 2816 2598 2816 
C 2317 2816 2074 2586 1632 1905 
L 1562 2255 
C 1472 2689 1402 2816 1229 2816 
C 1088 2816 870 2759 480 2631 
L 410 2606 
L 435 2510 
C 678 2567 736 2580 794 2580 
C 954 2580 992 2523 1082 2140 
L 1267 1357 
L 742 612 
C 614 421 486 306 416 306 
C 378 306 314 325 250 364 
C 166 408 96 428 45 428 
C -77 428 -173 332 -173 204 
C -173 38 -45 -64 147 -64 
C 346 -64 422 -7 742 382 
C 915 586 1050 759 1318 1128 
L 1510 363 
C 1594 38 1677 -64 1882 -64 
C 2125 -64 2291 89 2662 663 
L 2573 714 
z
" transform="scale(0.015625)"/>
      </defs>
      <use xlink:href="#NimbusRomNo9L-ReguItal-78" transform="scale(0.996264)"/>
     </g>
    </g>
   </g>
   <g id="matplotlib.axis_2">
    <g id="ytick_1">
     <g id="line2d_39">
      <defs>
       <path id="mb6e25b6e78" d="M 0 0 
L 3 0 
" style="stroke: #000000; stroke-width: 0.5"/>
      </defs>
      <g>
       <use xlink:href="#mb6e25b6e78" x="23.470435" y="129.603518" style="stroke: #000000; stroke-width: 0.5"/>
      </g>
     </g>
     <g id="line2d_40">
      <defs>
       <path id="m727ea4ac17" d="M 0 0 
L -3 0 
" style="stroke: #000000; stroke-width: 0.5"/>
      </defs>
      <g>
       <use xlink:href="#m727ea4ac17" x="207.610435" y="129.603518" style="stroke: #000000; stroke-width: 0.5"/>
      </g>
     </g>
     <g id="text_7">
      <!-- $\mathdefault{−1.0}$ -->
      <g transform="translate(3.6 132.305346)scale(0.08 -0.08)">
       <defs>
        <path id="CMSY10-0" d="M 4218 1472 
C 4326 1472 4442 1472 4442 1600 
C 4442 1728 4326 1728 4218 1728 
L 755 1728 
C 646 1728 531 1728 531 1600 
C 531 1472 646 1472 755 1472 
L 4218 1472 
z
" transform="scale(0.015625)"/>
        <path id="CMMI10-3a" d="M 1229 338 
C 1229 522 1075 675 890 675 
C 704 675 550 522 550 338 
C 550 153 704 0 890 0 
C 1075 0 1229 153 1229 338 
z
" transform="scale(0.015625)"/>
       </defs>
       <use xlink:href="#CMSY10-0" transform="scale(0.996264)"/>
       <use xlink:href="#NimbusRomNo9L-Regu-31" transform="translate(77.408707 0)scale(0.996264)"/>
       <use xlink:href="#CMMI10-3a" transform="translate(127.221908 0)scale(0.996264)"/>
       <use xlink:href="#NimbusRomNo9L-Regu-30" transform="translate(154.817414 0)scale(0.996264)"/>
      </g>
     </g>
    </g>
    <g id="ytick_2">
     <g id="line2d_41">
      <g>
       <use xlink:href="#mb6e25b6e78" x="23.470435" y="97.068049" style="stroke: #000000; stroke-width: 0.5"/>
      </g>
     </g>
     <g id="line2d_42">
      <g>
       <use xlink:href="#m727ea4ac17" x="207.610435" y="97.068049" style="stroke: #000000; stroke-width: 0.5"/>
      </g>
     </g>
     <g id="text_8">
      <!-- $\mathdefault{−0.5}$ -->
      <g transform="translate(3.6 99.769876)scale(0.08 -0.08)">
       <defs>
        <path id="NimbusRomNo9L-Regu-35" d="M 1158 3776 
L 2413 3776 
C 2515 3776 2541 3789 2560 3834 
L 2803 4403 
L 2746 4448 
C 2650 4314 2586 4282 2451 4282 
L 1114 4282 
L 416 2759 
C 410 2746 410 2740 410 2727 
C 410 2695 435 2676 486 2676 
C 691 2676 947 2631 1210 2547 
C 1946 2309 2285 1910 2285 1274 
C 2285 656 1894 173 1395 173 
C 1267 173 1158 218 966 360 
C 762 508 614 572 480 572 
C 294 572 205 495 205 334 
C 205 90 506 -64 986 -64 
C 1523 -64 1984 110 2304 438 
C 2598 728 2733 1094 2733 1583 
C 2733 2046 2611 2342 2291 2663 
C 2010 2947 1645 3094 890 3229 
L 1158 3776 
z
" transform="scale(0.015625)"/>
       </defs>
       <use xlink:href="#CMSY10-0" transform="scale(0.996264)"/>
       <use xlink:href="#NimbusRomNo9L-Regu-30" transform="translate(77.408707 0)scale(0.996264)"/>
       <use xlink:href="#CMMI10-3a" transform="translate(127.221908 0)scale(0.996264)"/>
       <use xlink:href="#NimbusRomNo9L-Regu-35" transform="translate(154.817414 0)scale(0.996264)"/>
      </g>
     </g>
    </g>
    <g id="ytick_3">
     <g id="line2d_43">
      <g>
       <use xlink:href="#mb6e25b6e78" x="23.470435" y="64.532579" style="stroke: #000000; stroke-width: 0.5"/>
      </g>
     </g>
     <g id="line2d_44">
      <g>
       <use xlink:href="#m727ea4ac17" x="207.610435" y="64.532579" style="stroke: #000000; stroke-width: 0.5"/>
      </g>
     </g>
     <g id="text_9">
      <!-- $\mathdefault{0.0}$ -->
      <g transform="translate(9.792689 67.234407)scale(0.08 -0.08)">
       <use xlink:href="#NimbusRomNo9L-Regu-30" transform="scale(0.996264)"/>
       <use xlink:href="#CMMI10-3a" transform="translate(49.8132 0)scale(0.996264)"/>
       <use xlink:href="#NimbusRomNo9L-Regu-30" transform="translate(77.408707 0)scale(0.996264)"/>
      </g>
     </g>
    </g>
    <g id="ytick_4">
     <g id="line2d_45">
      <g>
       <use xlink:href="#mb6e25b6e78" x="23.470435" y="31.99711" style="stroke: #000000; stroke-width: 0.5"/>
      </g>
     </g>
     <g id="line2d_46">
      <g>
       <use xlink:href="#m727ea4ac17" x="207.610435" y="31.99711" style="stroke: #000000; stroke-width: 0.5"/>
      </g>
     </g>
     <g id="text_10">
      <!-- $\mathdefault{0.5}$ -->
      <g transform="translate(9.792689 34.698938)scale(0.08 -0.08)">
       <use xlink:href="#NimbusRomNo9L-Regu-30" transform="scale(0.996264)"/>
       <use xlink:href="#CMMI10-3a" transform="translate(49.8132 0)scale(0.996264)"/>
       <use xlink:href="#NimbusRomNo9L-Regu-35" transform="translate(77.408707 0)scale(0.996264)"/>
      </g>
     </g>
    </g>
    <g id="ytick_5">
     <g id="line2d_47">
      <defs>
       <path id="m993d158c62" d="M 0 0 
L 1.5 0 
" style="stroke: #000000; stroke-width: 0.5"/>
      </defs>
      <g>
       <use xlink:href="#m993d158c62" x="23.470435" y="136.110612" style="stroke: #000000; stroke-width: 0.5"/>
      </g>
     </g>
     <g id="line2d_48">
      <defs>
       <path id="mcce23fc321" d="M 0 0 
L -1.5 0 
" style="stroke: #000000; stroke-width: 0.5"/>
      </defs>
      <g>
       <use xlink:href="#mcce23fc321" x="207.610435" y="136.110612" style="stroke: #000000; stroke-width: 0.5"/>
      </g>
     </g>
    </g>
    <g id="ytick_6">
     <g id="line2d_49">
      <g>
       <use xlink:href="#m993d158c62" x="23.470435" y="123.096424" style="stroke: #000000; stroke-width: 0.5"/>
      </g>
     </g>
     <g id="line2d_50">
      <g>
       <use xlink:href="#mcce23fc321" x="207.610435" y="123.096424" style="stroke: #000000; stroke-width: 0.5"/>
      </g>
     </g>
    </g>
    <g id="ytick_7">
     <g id="line2d_51">
      <g>
       <use xlink:href="#m993d158c62" x="23.470435" y="116.58933" style="stroke: #000000; stroke-width: 0.5"/>
      </g>
     </g>
     <g id="line2d_52">
      <g>
       <use xlink:href="#mcce23fc321" x="207.610435" y="116.58933" style="stroke: #000000; stroke-width: 0.5"/>
      </g>
     </g>
    </g>
    <g id="ytick_8">
     <g id="line2d_53">
      <g>
       <use xlink:href="#m993d158c62" x="23.470435" y="110.082236" style="stroke: #000000; stroke-width: 0.5"/>
      </g>
     </g>
     <g id="line2d_54">
      <g>
       <use xlink:href="#mcce23fc321" x="207.610435" y="110.082236" style="stroke: #000000; stroke-width: 0.5"/>
      </g>
     </g>
    </g>
    <g id="ytick_9">
     <g id="line2d_55">
      <g>
       <use xlink:href="#m993d158c62" x="23.470435" y="103.575142" style="stroke: #000000; stroke-width: 0.5"/>
      </g>
     </g>
     <g id="line2d_56">
      <g>
       <use xlink:href="#mcce23fc321" x="207.610435" y="103.575142" style="stroke: #000000; stroke-width: 0.5"/>
      </g>
     </g>
    </g>
    <g id="ytick_10">
     <g id="line2d_57">
      <g>
       <use xlink:href="#m993d158c62" x="23.470435" y="90.560955" style="stroke: #000000; stroke-width: 0.5"/>
      </g>
     </g>
     <g id="line2d_58">
      <g>
       <use xlink:href="#mcce23fc321" x="207.610435" y="90.560955" style="stroke: #000000; stroke-width: 0.5"/>
      </g>
     </g>
    </g>
    <g id="ytick_11">
     <g id="line2d_59">
      <g>
       <use xlink:href="#m993d158c62" x="23.470435" y="84.053861" style="stroke: #000000; stroke-width: 0.5"/>
      </g>
     </g>
     <g id="line2d_60">
      <g>
       <use xlink:href="#mcce23fc321" x="207.610435" y="84.053861" style="stroke: #000000; stroke-width: 0.5"/>
      </g>
     </g>
    </g>
    <g id="ytick_12">
     <g id="line2d_61">
      <g>
       <use xlink:href="#m993d158c62" x="23.470435" y="77.546767" style="stroke: #000000; stroke-width: 0.5"/>
      </g>
     </g>
     <g id="line2d_62">
      <g>
       <use xlink:href="#mcce23fc321" x="207.610435" y="77.546767" style="stroke: #000000; stroke-width: 0.5"/>
      </g>
     </g>
    </g>
    <g id="ytick_13">
     <g id="line2d_63">
      <g>
       <use xlink:href="#m993d158c62" x="23.470435" y="71.039673" style="stroke: #000000; stroke-width: 0.5"/>
      </g>
     </g>
     <g id="line2d_64">
      <g>
       <use xlink:href="#mcce23fc321" x="207.610435" y="71.039673" style="stroke: #000000; stroke-width: 0.5"/>
      </g>
     </g>
    </g>
    <g id="ytick_14">
     <g id="line2d_65">
      <g>
       <use xlink:href="#m993d158c62" x="23.470435" y="58.025485" style="stroke: #000000; stroke-width: 0.5"/>
      </g>
     </g>
     <g id="line2d_66">
      <g>
       <use xlink:href="#mcce23fc321" x="207.610435" y="58.025485" style="stroke: #000000; stroke-width: 0.5"/>
      </g>
     </g>
    </g>
    <g id="ytick_15">
     <g id="line2d_67">
      <g>
       <use xlink:href="#m993d158c62" x="23.470435" y="51.518392" style="stroke: #000000; stroke-width: 0.5"/>
      </g>
     </g>
     <g id="line2d_68">
      <g>
       <use xlink:href="#mcce23fc321" x="207.610435" y="51.518392" style="stroke: #000000; stroke-width: 0.5"/>
      </g>
     </g>
    </g>
    <g id="ytick_16">
     <g id="line2d_69">
      <g>
       <use xlink:href="#m993d158c62" x="23.470435" y="45.011298" style="stroke: #000000; stroke-width: 0.5"/>
      </g>
     </g>
     <g id="line2d_70">
      <g>
       <use xlink:href="#mcce23fc321" x="207.610435" y="45.011298" style="stroke: #000000; stroke-width: 0.5"/>
      </g>
     </g>
    </g>
    <g id="ytick_17">
     <g id="line2d_71">
      <g>
       <use xlink:href="#m993d158c62" x="23.470435" y="38.504204" style="stroke: #000000; stroke-width: 0.5"/>
      </g>
     </g>
     <g id="line2d_72">
      <g>
       <use xlink:href="#mcce23fc321" x="207.610435" y="38.504204" style="stroke: #000000; stroke-width: 0.5"/>
      </g>
     </g>
    </g>
    <g id="ytick_18">
     <g id="line2d_73">
      <g>
       <use xlink:href="#m993d158c62" x="23.470435" y="25.490016" style="stroke: #000000; stroke-width: 0.5"/>
      </g>
     </g>
     <g id="line2d_74">
      <g>
       <use xlink:href="#mcce23fc321" x="207.610435" y="25.490016" style="stroke: #000000; stroke-width: 0.5"/>
      </g>
     </g>
    </g>
    <g id="ytick_19">
     <g id="line2d_75">
      <g>
       <use xlink:href="#m993d158c62" x="23.470435" y="18.982922" style="stroke: #000000; stroke-width: 0.5"/>
      </g>
     </g>
     <g id="line2d_76">
      <g>
       <use xlink:href="#mcce23fc321" x="207.610435" y="18.982922" style="stroke: #000000; stroke-width: 0.5"/>
      </g>
     </g>
    </g>
    <g id="ytick_20">
     <g id="line2d_77">
      <g>
       <use xlink:href="#m993d158c62" x="23.470435" y="12.475829" style="stroke: #000000; stroke-width: 0.5"/>
      </g>
     </g>
     <g id="line2d_78">
      <g>
       <use xlink:href="#mcce23fc321" x="207.610435" y="12.475829" style="stroke: #000000; stroke-width: 0.5"/>
      </g>
     </g>
    </g>
    <g id="ytick_21">
     <g id="line2d_79">
      <g>
       <use xlink:href="#m993d158c62" x="23.470435" y="5.968735" style="stroke: #000000; stroke-width: 0.5"/>
      </g>
     </g>
     <g id="line2d_80">
      <g>
       <use xlink:href="#mcce23fc321" x="207.610435" y="5.968735" style="stroke: #000000; stroke-width: 0.5"/>
      </g>
     </g>
    </g>
   </g>
   <g id="line2d_81">
    <path d="M 31.840435 9.777273 
L 33.531344 16.030923 
L 35.222253 21.423681 
L 36.913162 26.132576 
L 38.604071 30.287075 
L 40.29498 33.983983 
L 41.985889 37.297093 
L 43.676798 40.283613 
L 45.367707 42.988568 
L 47.058616 45.44788 
L 48.749526 47.690573 
L 50.440435 49.74037 
L 52.131344 51.616879 
L 53.822253 53.336477 
L 55.513162 54.91299 
L 57.204071 56.358203 
L 58.89498 57.682269 
L 60.585889 58.89402 
L 62.276798 60.001216 
L 63.967707 61.010747 
L 65.658616 61.928788 
L 67.349526 62.760926 
L 69.040435 63.512267 
L 70.731344 64.187518 
L 72.422253 64.791056 
L 74.113162 65.32698 
L 75.804071 65.79916 
L 77.49498 66.211274 
L 79.185889 66.566834 
L 80.876798 66.869213 
L 82.567707 67.121664 
L 84.258616 67.327332 
L 85.949526 67.48927 
L 87.640435 67.610445 
L 89.331344 67.693746 
L 91.022253 67.741989 
L 92.713162 67.757917 
L 94.404071 67.744208 
L 96.09498 67.703466 
L 97.785889 67.638232 
L 99.476798 67.550972 
L 101.167707 67.444085 
L 102.858616 67.319893 
L 104.549526 67.180643 
L 106.240435 67.028503 
L 107.931344 66.865562 
L 109.622253 66.69382 
L 111.313162 66.515195 
L 113.004071 66.331512 
L 114.69498 66.144505 
L 116.385889 65.955813 
L 118.076798 65.766981 
L 119.767707 65.579452 
L 121.458616 65.394571 
L 123.149526 65.213583 
L 124.840435 65.03763 
L 126.531344 64.867752 
L 128.222253 64.704888 
L 129.913162 64.549874 
L 131.604071 64.403446 
L 133.29498 64.266238 
L 134.985889 64.138789 
L 136.676798 64.02154 
L 138.367707 63.914837 
L 140.058616 63.818934 
L 141.749526 63.734 
L 143.440435 63.660115 
L 145.131344 63.59728 
L 146.822253 63.545415 
L 148.513162 63.50437 
L 150.204071 63.473923 
L 151.89498 63.45379 
L 153.585889 63.443625 
L 155.276798 63.443027 
L 156.967707 63.451546 
L 158.658616 63.468688 
L 160.349526 63.493918 
L 162.040435 63.526666 
L 163.731344 63.566335 
L 165.422253 63.612302 
L 167.113162 63.663928 
L 168.804071 63.720557 
L 170.49498 63.781528 
L 172.185889 63.846174 
L 173.876798 63.913828 
L 175.567707 63.983831 
L 177.258616 64.055533 
L 178.949526 64.128298 
L 180.640435 64.201506 
L 182.331344 64.274561 
L 184.022253 64.346892 
L 185.713162 64.417953 
L 187.404071 64.487231 
L 189.09498 64.554246 
L 190.785889 64.618552 
L 192.476798 64.679743 
L 194.167707 64.73745 
L 195.858616 64.791343 
L 197.549526 64.841134 
L 199.240435 64.886579 
" clip-path="url(#p5c6283158a)" style="fill: none; stroke: #000000; stroke-linecap: square"/>
   </g>
   <g id="line2d_82">
    <path d="M 31.840435 133.322727 
L 33.531344 128.587825 
L 35.222253 120.091676 
L 36.913162 113.281246 
L 38.604071 107.715317 
L 40.29498 103.08768 
L 41.985889 99.180543 
L 43.676798 95.835687 
L 45.367707 92.936047 
L 47.058616 90.393609 
L 48.749526 88.141275 
L 50.440435 86.127261 
L 52.131344 84.31117 
L 53.822253 82.661192 
L 55.513162 81.152072 
L 57.204071 79.763615 
L 58.89498 78.47957 
L 60.585889 77.286788 
L 62.276798 76.174581 
L 63.967707 75.134222 
L 65.658616 74.15856 
L 67.349526 73.241716 
L 69.040435 72.37884 
L 70.731344 71.565918 
L 72.422253 70.799616 
L 74.113162 70.077153 
L 75.804071 69.396199 
L 77.49498 68.754787 
L 79.185889 68.151246 
L 80.876798 67.584143 
L 82.567707 67.052231 
L 84.258616 66.554412 
L 85.949526 66.089701 
L 87.640435 65.657199 
L 89.331344 65.256071 
L 91.022253 64.885522 
L 92.713162 64.544783 
L 94.404071 64.233098 
L 96.09498 63.949712 
L 97.785889 63.693863 
L 99.476798 63.464772 
L 101.167707 63.261641 
L 102.858616 63.083647 
L 104.549526 62.929938 
L 106.240435 62.799633 
L 107.931344 62.691822 
L 109.622253 62.605562 
L 111.313162 62.539883 
L 113.004071 62.493784 
L 114.69498 62.466239 
L 116.385889 62.456198 
L 118.076798 62.46259 
L 119.767707 62.484326 
L 121.458616 62.520302 
L 123.149526 62.569403 
L 124.840435 62.63051 
L 126.531344 62.702499 
L 128.222253 62.784249 
L 129.913162 62.874645 
L 131.604071 62.972582 
L 133.29498 63.07697 
L 134.985889 63.186739 
L 136.676798 63.300838 
L 138.367707 63.418249 
L 140.058616 63.537979 
L 141.749526 63.659074 
L 143.440435 63.780616 
L 145.131344 63.901727 
L 146.822253 64.021576 
L 148.513162 64.139376 
L 150.204071 64.254391 
L 151.89498 64.365937 
L 153.585889 64.473382 
L 155.276798 64.576148 
L 156.967707 64.673716 
L 158.658616 64.765621 
L 160.349526 64.851456 
L 162.040435 64.930872 
L 163.731344 65.003579 
L 165.422253 65.069342 
L 167.113162 65.127984 
L 168.804071 65.179382 
L 170.49498 65.223468 
L 172.185889 65.260228 
L 173.876798 65.289697 
L 175.567707 65.311958 
L 177.258616 65.327145 
L 178.949526 65.33543 
L 180.640435 65.33703 
L 182.331344 65.332201 
L 184.022253 65.321231 
L 185.713162 65.304444 
L 187.404071 65.282191 
L 189.09498 65.254848 
L 190.785889 65.222817 
L 192.476798 65.186515 
L 194.167707 65.146376 
L 195.858616 65.102846 
L 197.549526 65.056379 
L 199.240435 65.032469 
" clip-path="url(#p5c6283158a)" style="fill: none; stroke-dasharray: 3.7,1.6; stroke-dashoffset: 0; stroke: #ff0000"/>
   </g>
   <g id="line2d_83">
    <path d="M 31.840435 59.554824 
L 33.531344 55.145583 
L 35.222253 51.226592 
L 36.913162 47.735683 
L 38.604071 44.622455 
L 40.29498 41.84531 
L 41.985889 39.369357 
L 43.676798 37.164905 
L 45.367707 35.206359 
L 47.058616 33.471386 
L 48.749526 31.940294 
L 50.440435 30.595548 
L 52.131344 29.421393 
L 53.822253 28.403566 
L 55.513162 27.529058 
L 57.204071 26.785933 
L 58.89498 26.163177 
L 60.585889 25.650581 
L 62.276798 25.238639 
L 63.967707 24.918472 
L 65.658616 24.681764 
L 67.349526 24.520705 
L 69.040435 24.427949 
L 70.731344 24.39658 
L 72.422253 24.420078 
L 74.113162 24.492296 
L 75.804071 24.60744 
L 77.49498 24.760048 
L 79.185889 24.94498 
L 80.876798 25.157402 
L 82.567707 25.392773 
L 84.258616 25.646841 
L 85.949526 25.915631 
L 87.640435 26.195437 
L 89.331344 26.482816 
L 91.022253 26.774581 
L 92.713162 27.067793 
L 94.404071 27.359759 
L 96.09498 27.648022 
L 97.785889 27.930354 
L 99.476798 28.204753 
L 101.167707 28.469436 
L 102.858616 28.722828 
L 104.549526 28.963561 
L 106.240435 29.190463 
L 107.931344 29.402552 
L 109.622253 29.599029 
L 111.313162 29.779267 
L 113.004071 29.942806 
L 114.69498 30.089345 
L 116.385889 30.218729 
L 118.076798 30.330948 
L 119.767707 30.426118 
L 121.458616 30.504481 
L 123.149526 30.56639 
L 124.840435 30.612304 
L 126.531344 30.642774 
L 128.222253 30.658439 
L 129.913162 30.660011 
L 131.604071 30.648272 
L 133.29498 30.624059 
L 134.985889 30.58826 
L 136.676798 30.541802 
L 138.367707 30.485643 
L 140.058616 30.420766 
L 141.749526 30.348168 
L 143.440435 30.268853 
L 145.131344 30.183826 
L 146.822253 30.094084 
L 148.513162 30.00061 
L 150.204071 29.904369 
L 151.89498 29.806297 
L 153.585889 29.707301 
L 155.276798 29.608251 
L 156.967707 29.509975 
L 158.658616 29.413258 
L 160.349526 29.318834 
L 162.040435 29.227388 
L 163.731344 29.139547 
L 165.422253 29.055886 
L 167.113162 28.976917 
L 168.804071 28.903097 
L 170.49498 28.83482 
L 172.185889 28.772419 
L 173.876798 28.716169 
L 175.567707 28.666283 
L 177.258616 28.622915 
L 178.949526 28.586162 
L 180.640435 28.556065 
L 182.331344 28.532608 
L 184.022253 28.515728 
L 185.713162 28.505307 
L 187.404071 28.501184 
L 189.09498 28.503154 
L 190.785889 28.51097 
L 192.476798 28.524348 
L 194.167707 28.542973 
L 195.858616 28.566497 
L 197.549526 28.594547 
L 199.240435 28.626729 
" clip-path="url(#p5c6283158a)" style="fill: none; stroke-dasharray: 1,1.65; stroke-dashoffset: 0; stroke: #0000ff"/>
   </g>
   <g id="patch_3">
    <path d="M 23.470435 139.5 
L 23.470435 3.6 
" style="fill: none; stroke: #000000; stroke-width: 0.5; stroke-linejoin: miter; stroke-linecap: square"/>
   </g>
   <g id="patch_4">
    <path d="M 207.610435 139.5 
L 207.610435 3.6 
" style="fill: none; stroke: #000000; stroke-width: 0.5; stroke-linejoin: miter; stroke-linecap: square"/>
   </g>
   <g id="patch_5">
    <path d="M 23.470435 139.5 
L 207.610435 139.5 
" style="fill: none; stroke: #000000; stroke-width: 0.5; stroke-linejoin: miter; stroke-linecap: square"/>
   </g>
   <g id="patch_6">
    <path d="M 23.470435 3.6 
L 207.610435 3.6 
" style="fill: none; stroke: #000000; stroke-width: 0.5; stroke-linejoin: miter; stroke-linecap: square"/>
   </g>
   <g id="legend_1">
    <g id="patch_7">
     <path d="M 148.807768 135.5 
L 202.010435 135.5 
Q 203.610435 135.5 203.610435 133.9 
L 203.610435 98.789603 
Q 203.610435 97.189603 202.010435 97.189603 
L 148.807768 97.189603 
Q 147.207768 97.189603 147.207768 98.789603 
L 147.207768 133.9 
Q 147.207768 135.5 148.807768 135.5 
z
" style="fill: #ffffff; opacity: 0.8; stroke: #cccccc; stroke-linejoin: miter"/>
    </g>
    <g id="line2d_84">
     <path d="M 150.407768 103.567187 
L 158.407768 103.567187 
L 166.407768 103.567187 
" style="fill: none; stroke: #000000; stroke-linecap: square"/>
    </g>
    <g id="text_11">
     <!-- $y=f(x)$ -->
     <g transform="translate(172.807768 106.367187)scale(0.08 -0.08)">
      <defs>
       <path id="NimbusRomNo9L-ReguItal-79" d="M 96 2557 
C 179 2576 224 2576 294 2576 
C 659 2576 755 2418 1050 1332 
C 1158 922 1312 183 1312 76 
C 1312 -25 1274 -126 1178 -240 
C 979 -499 851 -663 781 -739 
C 646 -878 570 -928 486 -928 
C 448 -928 403 -909 333 -859 
C 237 -783 166 -752 96 -752 
C -45 -752 -154 -860 -154 -1000 
C -154 -1158 -13 -1280 173 -1280 
C 582 -1280 1421 -330 2112 924 
C 2547 1702 2726 2158 2726 2468 
C 2726 2658 2566 2816 2374 2816 
C 2227 2816 2125 2722 2125 2582 
C 2125 2487 2176 2418 2304 2336 
C 2426 2266 2470 2209 2470 2121 
C 2470 1867 2234 1374 1690 482 
L 1562 1216 
C 1466 1773 1107 2816 1011 2816 
L 986 2816 
C 979 2810 954 2810 928 2810 
C 870 2804 640 2765 301 2702 
C 269 2696 186 2677 96 2664 
L 96 2557 
z
" transform="scale(0.015625)"/>
       <path id="CMR10-3d" d="M 4397 2048 
C 4493 2048 4614 2048 4614 2177 
C 4614 2305 4493 2305 4403 2305 
L 570 2305 
C 480 2305 358 2305 358 2177 
C 358 2048 480 2048 576 2048 
L 4397 2048 
z
M 4403 832 
C 4493 832 4614 832 4614 961 
C 4614 1089 4493 1089 4397 1089 
L 576 1089 
C 480 1089 358 1089 358 961 
C 358 832 480 832 570 832 
L 4403 832 
z
" transform="scale(0.015625)"/>
       <path id="NimbusRomNo9L-ReguItal-66" d="M 224 2560 
L 800 2560 
L 237 -114 
C 96 -796 -115 -1146 -384 -1146 
C -461 -1146 -512 -1101 -512 -1044 
C -512 -1025 -506 -1005 -486 -974 
C -461 -936 -454 -912 -454 -873 
C -454 -739 -570 -631 -704 -631 
C -838 -631 -941 -746 -941 -891 
C -941 -1109 -717 -1280 -435 -1280 
C 134 -1280 582 -650 845 522 
L 1306 2560 
L 2003 2560 
L 2042 2764 
L 1350 2764 
C 1536 3770 1773 4224 2131 4224 
C 2214 4224 2272 4193 2272 4148 
C 2272 4129 2266 4116 2246 4083 
C 2221 4025 2208 3994 2208 3949 
C 2208 3796 2304 3693 2445 3693 
C 2592 3693 2714 3808 2714 3949 
C 2714 4186 2477 4365 2163 4365 
C 1850 4365 1600 4224 1370 3923 
C 1178 3673 1050 3379 858 2764 
L 269 2764 
L 224 2560 
z
" transform="scale(0.015625)"/>
       <path id="CMR10-28" d="M 2118 -1536 
C 2118 -1517 2118 -1504 2010 -1395 
C 1210 -584 1005 632 1005 1616 
C 1005 2735 1248 3855 2035 4658 
C 2118 4735 2118 4748 2118 4767 
C 2118 4812 2093 4832 2054 4832 
C 1990 4832 1414 4395 1037 3577 
C 710 2870 634 2156 634 1616 
C 634 1114 704 336 1056 -391 
C 1440 -1182 1990 -1600 2054 -1600 
C 2093 -1600 2118 -1581 2118 -1536 
z
" transform="scale(0.015625)"/>
       <path id="CMR10-29" d="M 1850 1616 
C 1850 2118 1779 2896 1427 3622 
C 1043 4414 493 4832 429 4832 
C 390 4832 365 4806 365 4767 
C 365 4748 365 4735 486 4620 
C 1114 3983 1478 2960 1478 1616 
C 1478 516 1242 -617 448 -1427 
C 365 -1504 365 -1517 365 -1536 
C 365 -1575 390 -1600 429 -1600 
C 493 -1600 1069 -1163 1446 -346 
C 1773 362 1850 1075 1850 1616 
z
" transform="scale(0.015625)"/>
      </defs>
      <use xlink:href="#NimbusRomNo9L-ReguItal-79" transform="scale(0.996264)"/>
      <use xlink:href="#CMR10-3d" transform="translate(66.372715 0)scale(0.996264)"/>
      <use xlink:href="#NimbusRomNo9L-ReguItal-66" transform="translate(180.864483 0)scale(0.996264)"/>
      <use xlink:href="#CMR10-28" transform="translate(223.104718 0)scale(0.996264)"/>
      <use xlink:href="#NimbusRomNo9L-ReguItal-78" transform="translate(261.758563 0)scale(0.996264)"/>
      <use xlink:href="#CMR10-29" transform="translate(306.289981 0)scale(0.996264)"/>
     </g>
    </g>
    <g id="line2d_85">
     <path d="M 150.407768 115.537299 
L 158.407768 115.537299 
L 166.407768 115.537299 
" style="fill: none; stroke-dasharray: 3.7,1.6; stroke-dashoffset: 0; stroke: #ff0000"/>
    </g>
    <g id="text_12">
     <!-- $dy/dx$ -->
     <g transform="translate(172.807768 118.337299)scale(0.08 -0.08)">
      <defs>
       <path id="NimbusRomNo9L-ReguItal-64" d="M 2963 714 
C 2618 319 2547 261 2438 261 
C 2374 261 2323 319 2323 389 
C 2323 479 2528 1257 2739 1959 
C 2912 2546 3046 3057 3373 4333 
L 3341 4365 
C 3002 4295 2771 4256 2362 4218 
L 2362 4103 
C 2714 4103 2758 4084 2758 3948 
C 2758 3865 2752 3827 2662 3499 
L 2381 2446 
C 2330 2714 2214 2816 1965 2816 
C 1133 2816 96 1619 96 662 
C 96 209 352 -64 768 -64 
C 1203 -64 1485 140 1920 777 
C 1850 457 1837 362 1837 218 
C 1837 49 1946 -64 2106 -64 
C 2374 -64 2707 193 3040 650 
L 2963 714 
z
M 1990 2663 
C 2182 2663 2278 2541 2278 2311 
C 2278 1341 1613 242 1024 242 
C 806 242 653 414 653 662 
C 653 1189 973 1926 1395 2371 
C 1574 2555 1811 2675 1990 2663 
z
" transform="scale(0.015625)"/>
       <path id="CMMI10-3d" d="M 2810 4526 
C 2842 4609 2842 4634 2842 4641 
C 2842 4711 2784 4768 2714 4768 
C 2669 4768 2624 4749 2605 4711 
L 384 -1358 
C 352 -1440 352 -1466 352 -1472 
C 352 -1542 410 -1600 480 -1600 
C 563 -1600 582 -1555 621 -1447 
L 2810 4526 
z
" transform="scale(0.015625)"/>
      </defs>
      <use xlink:href="#NimbusRomNo9L-ReguItal-64" transform="scale(0.996264)"/>
      <use xlink:href="#NimbusRomNo9L-ReguItal-79" transform="translate(54.992828 0)scale(0.996264)"/>
      <use xlink:href="#CMMI10-3d" transform="translate(99.226396 0)scale(0.996264)"/>
      <use xlink:href="#NimbusRomNo9L-ReguItal-64" transform="translate(149.039597 0)scale(0.996264)"/>
      <use xlink:href="#NimbusRomNo9L-ReguItal-78" transform="translate(204.032425 0)scale(0.996264)"/>
     </g>
    </g>
    <g id="line2d_86">
     <path d="M 150.407768 127.503413 
L 158.407768 127.503413 
L 166.407768 127.503413 
" style="fill: none; stroke-dasharray: 1,1.65; stroke-dashoffset: 0; stroke: #0000ff"/>
    </g>
    <g id="text_13">
     <!-- $\int y dx$ -->
     <g transform="translate(172.807768 130.303413)scale(0.08 -0.08)">
      <defs>
       <path id="CMEX10-52" d="M 1741 -5632 
C 1658 -6682 1427 -6970 1062 -6970 
C 979 -6970 787 -6950 653 -6836 
C 838 -6811 890 -6663 890 -6574 
C 890 -6387 749 -6304 627 -6304 
C 499 -6304 358 -6387 358 -6579 
C 358 -6886 678 -7110 1062 -7110 
C 1670 -7110 1978 -6554 2118 -5978 
C 2202 -5645 2432 -3782 2483 -3071 
L 2605 -1477 
C 2694 -300 2912 -140 3200 -140 
C 3264 -140 3462 -153 3603 -274 
C 3418 -300 3366 -447 3366 -537 
C 3366 -722 3507 -805 3629 -805 
C 3757 -805 3898 -722 3898 -530 
C 3898 -223 3578 1 3194 1 
C 2586 1 2336 -620 2227 -1106 
C 2150 -1458 1920 -3263 1862 -4038 
L 1741 -5632 
z
" transform="scale(0.015625)"/>
      </defs>
      <use xlink:href="#CMEX10-52" transform="translate(0 74.669908)scale(0.896637)"/>
      <use xlink:href="#NimbusRomNo9L-ReguItal-79" transform="translate(70.645905 0)scale(0.996264)"/>
      <use xlink:href="#NimbusRomNo9L-ReguItal-64" transform="translate(114.879474 0)scale(0.996264)"/>
      <use xlink:href="#NimbusRomNo9L-ReguItal-78" transform="translate(169.872302 0)scale(0.996264)"/>
     </g>
    </g>
   </g>
  </g>
 </g>
 <defs>
  <clipPath id="p5c6283158a">
   <rect x="23.470435" y="3.6" width="184.14" height="135.9"/>
  </clipPath>
 </defs>
</svg>
